inDegrees=no
num_controls=7
num_derivatives=13
num_iterations=78
num_multipliers=7
num_parameters=0
num_slacks=7
num_states=26
objective=0.334146
objective_accelerations=0.036253
objective_balance=0.001261
objective_effort=0.027258
objective_height=0.267726
objective_ligament=0.001648
solver_duration=953.498478
status=Solve_Succeeded
success=true
DataType=double
version=3
OpenSimVersion=4.5
endheader
time	/jointset/ground_pelvis/pelvis_tilt/value	/jointset/ground_pelvis/pelvis_tx/value	/jointset/ground_pelvis/pelvis_ty/value	/jointset/hip_r/hip_flexion_r/value	/jointset/hip_r/hip_adduction_r/value	/jointset/hip_r/hip_rotation_r/value	/jointset/back/lumbar_extension/value	/jointset/patellofemoral_r/patellar_flexion_r/value	/jointset/knee_r/knee_flexion_r/value	/jointset/knee_r/knee_adduction_r/value	/jointset/knee_r/knee_rotation_r/value	/jointset/ankle_r/ankle_angle_r/value	/jointset/subtalar_r/subtalar_angle_r/value	/jointset/ground_pelvis/pelvis_tilt/speed	/jointset/ground_pelvis/pelvis_tx/speed	/jointset/ground_pelvis/pelvis_ty/speed	/jointset/hip_r/hip_flexion_r/speed	/jointset/hip_r/hip_adduction_r/speed	/jointset/hip_r/hip_rotation_r/speed	/jointset/back/lumbar_extension/speed	/jointset/patellofemoral_r/patellar_flexion_r/speed	/jointset/knee_r/knee_flexion_r/speed	/jointset/knee_r/knee_adduction_r/speed	/jointset/knee_r/knee_rotation_r/speed	/jointset/ankle_r/ankle_angle_r/speed	/jointset/subtalar_r/subtalar_angle_r/speed	/forceset/tau_hip_flexion_r	/forceset/tau_hip_adduction_r	/forceset/tau_hip_rotation_r	/forceset/tau_knee_flexion_r	/forceset/tau_ankle_angle_r	/forceset/tau_subtalar_angle_r	/forceset/tau_lumbar_extension	lambda_cid13_p0	lambda_cid14_p0	lambda_cid14_p1	lambda_cid14_p2	lambda_cid14_p3	lambda_cid14_p4	lambda_cid14_p5	/jointset/ground_pelvis/pelvis_tilt/accel	/jointset/ground_pelvis/pelvis_tx/accel	/jointset/ground_pelvis/pelvis_ty/accel	/jointset/hip_r/hip_flexion_r/accel	/jointset/hip_r/hip_adduction_r/accel	/jointset/hip_r/hip_rotation_r/accel	/jointset/back/lumbar_extension/accel	/jointset/patellofemoral_r/patellar_flexion_r/accel	/jointset/knee_r/knee_flexion_r/accel	/jointset/knee_r/knee_adduction_r/accel	/jointset/knee_r/knee_rotation_r/accel	/jointset/ankle_r/ankle_angle_r/accel	/jointset/subtalar_r/subtalar_angle_r/accel	gamma_cid13_p0	gamma_cid14_p0	gamma_cid14_p1	gamma_cid14_p2	gamma_cid14_p3	gamma_cid14_p4	gamma_cid14_p5
1.5	-0.1065702002489672	0.04031442480482706	0.8166453692579022	0.8219671463342286	-0.2442786962090788	-0.07710533632408281	-0.6228003999054136	0.9403696615338925	0.9403696615338906	0.03177470142604097	0.1745108418532509	0.3046382389256068	0.1085076726171198	0.5103162582055951	0.2191450271812563	0.5031675593112089	-2.048017842385944	0.006144883351989016	-0.3555323917393904	0.8023309824441274	-1.962992939842229	-1.962992939842229	0.3026706131609482	0.0002827295161722055	-0.5256081574287275	-0.175859815810003	-0.1702143273347352	0.01257992953069529	0.02994641331901904	-0.2891363351949656	-0.007596029952298584	-0.01517323399980732	0.2177727720916602	-8.795599598844598	-45.11282766670155	-13.72305484463971	1.735253067173574	-0.9525079211892296	-629.5724674186015	52.40452891913755	0.1341559633439328	0.5338362890903388	-0.5050231417726303	-0.9945522183226196	-0.00775515668132705	-0.4488905749386775	1.750085495282482	-1.394642415175572	-1.394642415175593	0.4256715497606886	-0.05842916707702786	-0.6453768869287363	-0.07212766823942121	1.147065269231774e-08	-1.619955706430492e-07	-2.92667622069536e-06	-1.69024074230725e-06	4.205643707938492e-07	-3.138715976359507e-09	-1.806407691643826e-06
1.51	-0.101460741696914	0.0425323300382183	0.821650768925853	0.8014394557917596	-0.2442177636718601	-0.08068653145109049	-0.6146911780175972	0.9206724046185595	0.920672404618564	0.03482011574037757	0.1745133787739953	0.2993506602278903	0.1067456601158911	0.5115004543400603	0.2244079902252225	0.4978050906158384	-2.057244432424295	0.006032140354874706	-0.3606493246057904	0.8193903391108819	-1.97617673671749	-1.976176736717492	0.306442429142202	0.0002198917625276803	-0.5318246584239649	-0.1765250902138551	-0.1625174721944262	0.01071212477147217	0.02951545053311063	-0.2856711302117555	-0.005216104015019732	-0.01558489677318456	0.2108231248387822	-9.837044281018617	-44.04534075841011	-13.56366521021066	1.537059703244466	-1.160225748749251	-624.6418703409247	52.4632451502556	0.09928580687454372	0.5183983338966499	-0.5679575215758429	-0.8453594258018786	-0.0148771570288104	-0.5345150437209856	1.665402351116803	-1.237991805735332	-1.237991805735667	0.3570942654908529	0.01867604433637888	-0.5972609035058821	-0.06169417478591833	2.111273898993518e-09	-1.628525573624751e-07	-2.698664855522748e-06	-1.685457445093553e-06	3.95153280428902e-07	-2.165486950952635e-08	-1.586431304109703e-06
1.52	-0.0963416943098431	0.04480203930641832	0.8265993241492187	0.7808277699430616	-0.2441583272217704	-0.08431717998700503	-0.6064150542433653	0.9008517610380736	0.900851761038079	0.03790407974319498	0.1745150647419595	0.2940034216806824	0.1049774015009589	0.5122340252095984	0.2295058341430092	0.4917986703941983	-2.064816903631074	0.005845665925653416	-0.3654230735213966	0.8357113597274393	-1.987670272874111	-1.987670272874116	0.310380550850776	0.0001125389626657292	-0.5375401273265876	-0.1771090385508196	-0.1548206170541268	0.008844320012279855	0.02908448774701421	-0.2822059252285534	-0.002836178077728369	-0.015996559546504	0.2038734775858915	-10.8848737803374	-42.98014797792501	-13.40596921059834	1.340613372997192	-1.359439740674798	-619.7291436202222	52.50931772058619	0.04403091035844237	0.5008124638544466	-0.6338134470265308	-0.6637284520080846	-0.02250144310270526	-0.3802537847798694	1.602418285243039	-1.056590271447648	-1.056590271447643	0.4589326952247462	-0.06733217632051813	-0.5451704684057583	-0.05586245486189233	8.446875409542107e-09	-1.379895648557118e-07	-2.401480610987814e-06	-1.446949756440539e-06	3.451838192199325e-07	-3.998696158277917e-12	-1.37364085428722e-06
1.53	-0.091217578881469	0.04712182481108216	0.8314846535233826	0.7601487211388119	-0.2441010721900194	-0.08799333313120825	-0.5979794851293677	0.8809247613654185	0.88092476136539	0.04102856280002392	0.1745150570869587	0.2886015763882984	0.1032037814607841	0.5125113048223294	0.2344153463487992	0.485165412301105	-2.070700397403373	0.005618014587138671	-0.3698614542005836	0.851271582905597	-1.997435881436992	-1.997435881437005	0.3144168498332046	-7.690559640061924e-05	-0.5427329960218175	-0.1775587411563138	-0.1472244588851386	0.007063130073607212	0.02851081355489956	-0.2786939003573052	-0.0006963875432491304	-0.01638004335486771	0.1969853894031451	-11.93270227924553	-42.00767283703302	-13.24977019190154	1.141549846918848	-1.472963347216912	-615.0518668283803	52.55833637006392	0.007906129803454941	0.4806782129802598	-0.6933310585251959	-0.5067995796380441	-0.02122940830955687	-0.4836670688461952	1.513192309111935	-0.8924878707869944	-0.8924878707883739	0.3608328213525989	0.01064208539240824	-0.4918928601702922	-0.03146159490338511	3.145839349295539e-08	-8.579909442112309e-08	-2.030800182130416e-06	-9.601099018832512e-07	2.691210889891896e-07	6.432433548540268e-08	-1.168485463283353e-06
1.54	-0.08609302472835194	0.04948963696061148	0.8363006005030009	0.7394196094488772	-0.2440457601574582	-0.09171547745409085	-0.5893922401885877	0.8609089172626866	0.8609089172626684	0.04419037971093548	0.1745142335226281	0.2831506928509476	0.1014272769082526	0.512321770157995	0.239111163116107	0.4779221914850252	-2.074829480767554	0.005457066085284816	-0.3746213092541013	0.8660465250841551	-2.005439158883023	-2.005439158883046	0.3178473216796688	-5.064291178789632e-05	-0.5473477763205957	-0.1776859410222192	-0.139628300716187	0.005281940134888321	0.02793713936333135	-0.2751818754860484	0.001443402991210314	-0.01676352716333282	0.1900973012203739	-12.97711186229013	-41.03765048859304	-13.0955350467839	0.9445533818127065	-1.581850154670598	-610.3952018912335	52.61520329905601	-0.04933194505470822	0.4580733761580122	-0.7558059916238645	-0.3128463703840236	-0.009160875770580289	-0.4445486596459386	1.445362085323085	-0.7041240480779134	-0.7041240480779212	0.3377672680318992	-0.02419072758472477	-0.4295527891154021	0.008638093055874905	7.310440524203255e-08	-7.902449257234371e-09	-1.624175463290263e-06	-2.352063850698118e-07	1.738257140909343e-07	1.663984617823077e-07	-1.011574298027697e-06
1.55	-0.08097269552758968	0.05190328876317679	0.8410411681119571	0.7186578514956562	-0.2439922564039265	-0.09548399212139598	-0.5806614320623873	0.8408218927647332	0.8408218927647521	0.04738661537110862	0.1745136706177232	0.2776563565324374	0.09965015803002804	0.5116573521274319	0.2435774189463562	0.4700978656452368	-2.077216790416951	0.005261029519333569	-0.3791324434572886	0.8799660970069832	-2.011666419695223	-2.011666419695242	0.3212922110766261	-3.055176284917194e-05	-0.5514199700153996	-0.1776758491996026	-0.1318628250668872	0.003309945914349971	0.02736907881574765	-0.2722007020350085	0.004050488386392707	-0.01724331568256002	0.183100473951549	-14.01384015801544	-39.94780585801119	-12.9742265828633	0.7666058910720599	-1.755399136194106	-606.0779942910118	52.71469818635305	-0.08799317381333437	0.4346331426255815	-0.8096870130732272	-0.1558573400842919	-0.02209828715058591	-0.4617765411835422	1.342904273398638	-0.5371632033578663	-0.5371632033572168	0.3316059823743856	0.02004679234116625	-0.3810952929425304	0.006502250930868777	1.362205944754604e-07	9.961217983388958e-08	-1.176136671209114e-06	7.63987873038744e-07	5.637098772793765e-08	3.119623050816719e-07	-9.102488711341064e-07
1.56	-0.07586160979548572	0.05436034941527772	0.845700704235932	0.697881383630366	-0.2439401676640798	-0.09929909427883485	-0.5717958983114325	0.8206815684375693	0.8206815684375943	0.05061405116668278	0.174514296175507	0.2721242897503209	0.09787500157484313	0.5104730764266208	0.2477929330232321	0.4617158944887637	-2.077771463181025	0.005174063347634174	-0.3839388072816009	0.8929916500352585	-2.016099124730098	-2.016099124730112	0.3240873487474426	0.0001870496344133377	-0.5548938690413892	-0.1772934564143323	-0.1240973494175915	0.001337951693857606	0.02680101826771323	-0.2692195285839841	0.006657573781589458	-0.01772310420171514	0.1761036466827155	-15.03984627327093	-38.85939437753793	-12.85234203979816	0.5876215743323645	-1.936760249871357	-601.7717587514244	52.87448130668059	-0.1533034791043459	0.4079250254833894	-0.8673350549608183	0.05368100668065662	0.0126532030798331	-0.503594583870891	1.266558306412438	-0.3452128926129354	-0.3452128926129374	0.2078169228038179	0.01531132208003049	-0.3098938553525362	0.08309828558659728	1.910727716112756e-07	1.816073710481632e-07	-9.429552968017351e-07	1.521355992064963e-06	-2.063081221120213e-08	4.286346920253868e-07	-9.162223790566926e-07
1.57	-0.07076482911137295	0.05685827717942551	0.8502737377262385	0.6771082659303778	-0.2438890701676637	-0.1031613487269911	-0.5628047549162591	0.8005059722344867	0.800505972234489	0.053869157224421	0.174517380164329	0.2665603044769322	0.09610441255190853	0.5088013060427239	0.2517467061971467	0.4528060751098873	-2.076551102724479	0.005032631300411135	-0.3884084626248749	0.9050786425247714	-2.018704988145867	-2.018704988145856	0.3269807736846636	0.0003918357700988852	-0.5578050628003596	-0.1768126343010439	-0.1164455732936013	-0.0008286097378395843	0.02630358834180629	-0.2664620813618894	0.00930345557151651	-0.01831781977496965	0.1692317245731144	-16.05278071606852	-37.79447576919565	-12.79204053795742	0.4270882572151742	-2.088644952980002	-597.8776235213934	52.99786836537983	-0.1863573130083434	0.3822039646529146	-0.9154035338065406	0.201389574977235	-0.02921117756236529	-0.402738152176585	1.156011748990013	-0.1710561507838238	-0.171056150780258	0.3370553117737317	0.01777933004694708	-0.2669840999660381	0.03243845810032382	2.355949336250752e-07	2.317032649163742e-07	-9.783456944865649e-07	1.976441437238265e-06	-4.706645412052133e-08	5.091927585245404e-07	-1.056319555499499e-06
